<?xml version="1.0" encoding="iso-8859-1"?>
<!-- Generator: Adobe Illustrator 19.0.0, SVG Export Plug-In . SVG Version: 6.00 Build 0)  -->
<svg version="1.1" id="Capa_1" xmlns="http://www.w3.org/2000/svg" xmlns:xlink="http://www.w3.org/1999/xlink" x="0px" y="0px"
	 viewBox="0 0 512.377 512.377" style="enable-background:new 0 0 512.377 512.377;" xml:space="preserve">
<path style="fill:#4CAF50;" d="M501.308,499.306c0.63,3.155-0.149,6.427-2.133,8.96c-2.028,2.527-5.08,4.014-8.32,4.053H21.522
	c-3.24-0.039-6.292-1.526-8.32-4.053c-1.984-2.533-2.763-5.805-2.133-8.96l57.387-264.32l4.693-21.333L117.735,8.639
	c1.057-4.91,5.432-8.392,10.453-8.32h256c5.022-0.072,9.397,3.41,10.453,8.32l44.587,205.013l4.693,21.333L501.308,499.306z"/>
<g>
	<path style="fill:#FAFAFA;" d="M439.228,213.652h-89.387c-18.347-70.187-60.8-85.333-93.653-85.333
		c-46.933,0-79.787,30.507-93.653,85.333H73.148l-4.693,21.333h90.88c-0.122,17.544,6.003,34.559,17.28,48
		c19.775,23.5,48.861,37.146,79.573,37.333c31.052-0.372,60.408-14.232,80.427-37.973c11.055-13.276,16.962-30.087,16.64-47.36
		h90.667L439.228,213.652z M256.188,149.652c35.627,0,58.88,21.12,71.467,64H184.508
		C196.455,171.412,220.348,149.652,256.188,149.652z M319.975,268.906c-28.985,35.199-81.015,40.236-116.214,11.252
		c-3.889-3.203-7.477-6.755-10.719-10.612c-8.038-9.705-12.35-21.96-12.16-34.56h150.827
		C332.101,247.351,327.924,259.427,319.975,268.906z"/>
	<path style="fill:#FAFAFA;" d="M375.868,512.319h-21.76l-21.333-106.667H179.602l-21.333,106.667h-21.76l23.893-119.467
		c1.014-4.967,5.384-8.534,10.453-8.533h170.667c5.07-0.001,9.439,3.566,10.453,8.533L375.868,512.319z"/>
	<path style="fill:#FAFAFA;" d="M319.975,73.279c0.635,3.056-0.238,6.232-2.347,8.533c-1.936,2.498-4.947,3.925-8.107,3.84H202.855
		c-3.16,0.085-6.171-1.342-8.107-3.84c-2.109-2.302-2.982-5.477-2.347-8.533l12.16-72.96h21.547l-10.667,64h81.493l-10.667-64
		h21.547L319.975,73.279z"/>
</g>
<path d="M490.855,512.319H21.522c-5.891-0.008-10.661-4.789-10.653-10.68c0.001-0.756,0.082-1.509,0.242-2.248L117.778,8.724
	c1.063-4.901,5.396-8.399,10.411-8.405h256c5.015,0.006,9.348,3.505,10.411,8.405l106.667,490.667
	c1.249,5.757-2.406,11.437-8.163,12.686C492.364,512.237,491.611,512.318,490.855,512.319z M34.748,490.986h442.88L375.655,21.652
	H136.722L34.748,490.986z"/>
<path d="M416.188,234.986h-320c-5.891,0-10.667-4.776-10.667-10.667s4.776-10.667,10.667-10.667h320
	c5.891,0,10.667,4.776,10.667,10.667S422.079,234.986,416.188,234.986z"/>
<path d="M362.855,512.319c-5.062-0.009-9.42-3.574-10.432-8.533l-19.648-98.133H179.602l-19.627,98.133
	c-1.147,5.778-6.762,9.532-12.54,8.385c-0.001,0-0.003-0.001-0.004-0.001c-5.778-1.147-9.533-6.761-8.385-12.54
	c0.007-0.037,0.015-0.074,0.023-0.111l21.333-106.667c1.014-4.967,5.384-8.534,10.453-8.533h170.667
	c5.07-0.001,9.439,3.566,10.453,8.533l21.333,106.667c1.15,5.778-2.602,11.394-8.38,12.543c-0.001,0-0.003,0.001-0.004,0.001
	C364.245,512.219,363.552,512.305,362.855,512.319z"/>
<path d="M309.522,85.652H202.855c-5.891-0.003-10.664-4.781-10.662-10.672c0-0.584,0.049-1.168,0.144-1.744l10.667-64
	c0.791-5.838,6.165-9.929,12.002-9.138s9.929,6.165,9.138,12.002c-0.029,0.212-0.064,0.424-0.105,0.634l-8.597,51.584h81.493
	l-8.533-51.584c-1.141-5.779,2.619-11.39,8.398-12.531s11.39,2.619,12.531,8.398c0.042,0.21,0.077,0.422,0.105,0.634l10.667,64
	c0.966,5.811-2.961,11.305-8.773,12.272C310.733,85.607,310.128,85.656,309.522,85.652z"/>
<path d="M256.188,320.319c-30.692-0.178-59.768-13.78-79.573-37.227c-14.429-16.757-20.402-39.193-16.213-60.907
	c12.309-60.523,46.336-93.867,95.787-93.867c34.24,0,78.677,16.256,95.744,93.717l0,0c4.475,21.396-1.178,43.66-15.317,60.331
	C316.61,306.123,287.244,319.98,256.188,320.319z M256.188,149.652c-39.317,0-64.512,25.835-74.88,76.8
	c-2.881,15.43,1.475,31.329,11.819,43.136c29.386,34.895,81.496,39.362,116.391,9.976c3.796-3.196,7.295-6.728,10.457-10.552
	c10.067-11.648,14.171-27.301,11.115-42.389l0,0C319.698,174.826,295.186,149.652,256.188,149.652z"/>
<g>
</g>
<g>
</g>
<g>
</g>
<g>
</g>
<g>
</g>
<g>
</g>
<g>
</g>
<g>
</g>
<g>
</g>
<g>
</g>
<g>
</g>
<g>
</g>
<g>
</g>
<g>
</g>
<g>
</g>
</svg>
